<mxfile host="app.diagrams.net" agent="Mozilla/5.0 (Windows NT 10.0; Win64; x64) AppleWebKit/537.36 (KHTML, like Gecko) Chrome/133.0.0.0 Safari/537.36" version="26.0.14">
  <diagram id="C5RBs43oDa-KdzZeNtuy" name="Page-1">
    <mxGraphModel dx="1050" dy="569" grid="1" gridSize="10" guides="1" tooltips="1" connect="1" arrows="1" fold="1" page="1" pageScale="1" pageWidth="827" pageHeight="1169" math="0" shadow="0">
      <root>
        <mxCell id="WIyWlLk6GJQsqaUBKTNV-0" />
        <mxCell id="WIyWlLk6GJQsqaUBKTNV-1" parent="WIyWlLk6GJQsqaUBKTNV-0" />
        <mxCell id="zkfFHV4jXpPFQw0GAbJ--0" value="Person" style="swimlane;fontStyle=2;align=center;verticalAlign=top;childLayout=stackLayout;horizontal=1;startSize=26;horizontalStack=0;resizeParent=1;resizeLast=0;collapsible=1;marginBottom=0;rounded=0;shadow=0;strokeWidth=1;" parent="WIyWlLk6GJQsqaUBKTNV-1" vertex="1">
          <mxGeometry x="140" y="10" width="160" height="90" as="geometry">
            <mxRectangle x="230" y="140" width="160" height="26" as="alternateBounds" />
          </mxGeometry>
        </mxCell>
        <mxCell id="zkfFHV4jXpPFQw0GAbJ--1" value="Name" style="text;align=left;verticalAlign=top;spacingLeft=4;spacingRight=4;overflow=hidden;rotatable=0;points=[[0,0.5],[1,0.5]];portConstraint=eastwest;" parent="zkfFHV4jXpPFQw0GAbJ--0" vertex="1">
          <mxGeometry y="26" width="160" height="26" as="geometry" />
        </mxCell>
        <mxCell id="zkfFHV4jXpPFQw0GAbJ--2" value="Phone Number" style="text;align=left;verticalAlign=top;spacingLeft=4;spacingRight=4;overflow=hidden;rotatable=0;points=[[0,0.5],[1,0.5]];portConstraint=eastwest;rounded=0;shadow=0;html=0;" parent="zkfFHV4jXpPFQw0GAbJ--0" vertex="1">
          <mxGeometry y="52" width="160" height="26" as="geometry" />
        </mxCell>
        <mxCell id="zkfFHV4jXpPFQw0GAbJ--4" value="" style="line;html=1;strokeWidth=1;align=left;verticalAlign=middle;spacingTop=-1;spacingLeft=3;spacingRight=3;rotatable=0;labelPosition=right;points=[];portConstraint=eastwest;" parent="zkfFHV4jXpPFQw0GAbJ--0" vertex="1">
          <mxGeometry y="78" width="160" height="8" as="geometry" />
        </mxCell>
        <mxCell id="zkfFHV4jXpPFQw0GAbJ--6" value="Student" style="swimlane;fontStyle=0;align=center;verticalAlign=top;childLayout=stackLayout;horizontal=1;startSize=26;horizontalStack=0;resizeParent=1;resizeLast=0;collapsible=1;marginBottom=0;rounded=0;shadow=0;strokeWidth=1;" parent="WIyWlLk6GJQsqaUBKTNV-1" vertex="1">
          <mxGeometry x="30" y="152" width="160" height="68" as="geometry">
            <mxRectangle x="120" y="360" width="160" height="26" as="alternateBounds" />
          </mxGeometry>
        </mxCell>
        <mxCell id="zkfFHV4jXpPFQw0GAbJ--7" value="Student Number" style="text;align=left;verticalAlign=top;spacingLeft=4;spacingRight=4;overflow=hidden;rotatable=0;points=[[0,0.5],[1,0.5]];portConstraint=eastwest;" parent="zkfFHV4jXpPFQw0GAbJ--6" vertex="1">
          <mxGeometry y="26" width="160" height="26" as="geometry" />
        </mxCell>
        <mxCell id="zkfFHV4jXpPFQw0GAbJ--9" value="" style="line;html=1;strokeWidth=1;align=left;verticalAlign=middle;spacingTop=-1;spacingLeft=3;spacingRight=3;rotatable=0;labelPosition=right;points=[];portConstraint=eastwest;" parent="zkfFHV4jXpPFQw0GAbJ--6" vertex="1">
          <mxGeometry y="52" width="160" height="8" as="geometry" />
        </mxCell>
        <mxCell id="zkfFHV4jXpPFQw0GAbJ--12" value="" style="endArrow=block;endSize=10;endFill=0;shadow=0;strokeWidth=1;rounded=0;curved=0;edgeStyle=elbowEdgeStyle;elbow=vertical;" parent="WIyWlLk6GJQsqaUBKTNV-1" source="zkfFHV4jXpPFQw0GAbJ--6" target="zkfFHV4jXpPFQw0GAbJ--0" edge="1">
          <mxGeometry width="160" relative="1" as="geometry">
            <mxPoint x="190" y="63" as="sourcePoint" />
            <mxPoint x="190" y="63" as="targetPoint" />
          </mxGeometry>
        </mxCell>
        <mxCell id="zkfFHV4jXpPFQw0GAbJ--13" value="Professor" style="swimlane;fontStyle=0;align=center;verticalAlign=top;childLayout=stackLayout;horizontal=1;startSize=26;horizontalStack=0;resizeParent=1;resizeLast=0;collapsible=1;marginBottom=0;rounded=0;shadow=0;strokeWidth=1;" parent="WIyWlLk6GJQsqaUBKTNV-1" vertex="1">
          <mxGeometry x="250" y="152" width="160" height="68" as="geometry">
            <mxRectangle x="340" y="380" width="170" height="26" as="alternateBounds" />
          </mxGeometry>
        </mxCell>
        <mxCell id="zkfFHV4jXpPFQw0GAbJ--14" value="Salary" style="text;align=left;verticalAlign=top;spacingLeft=4;spacingRight=4;overflow=hidden;rotatable=0;points=[[0,0.5],[1,0.5]];portConstraint=eastwest;" parent="zkfFHV4jXpPFQw0GAbJ--13" vertex="1">
          <mxGeometry y="26" width="160" height="26" as="geometry" />
        </mxCell>
        <mxCell id="zkfFHV4jXpPFQw0GAbJ--15" value="" style="line;html=1;strokeWidth=1;align=left;verticalAlign=middle;spacingTop=-1;spacingLeft=3;spacingRight=3;rotatable=0;labelPosition=right;points=[];portConstraint=eastwest;" parent="zkfFHV4jXpPFQw0GAbJ--13" vertex="1">
          <mxGeometry y="52" width="160" height="8" as="geometry" />
        </mxCell>
        <mxCell id="zkfFHV4jXpPFQw0GAbJ--16" value="" style="endArrow=block;endSize=10;endFill=0;shadow=0;strokeWidth=1;rounded=0;curved=0;edgeStyle=elbowEdgeStyle;elbow=vertical;" parent="WIyWlLk6GJQsqaUBKTNV-1" source="zkfFHV4jXpPFQw0GAbJ--13" target="zkfFHV4jXpPFQw0GAbJ--0" edge="1">
          <mxGeometry width="160" relative="1" as="geometry">
            <mxPoint x="200" y="233" as="sourcePoint" />
            <mxPoint x="300" y="131" as="targetPoint" />
          </mxGeometry>
        </mxCell>
        <mxCell id="jRXq9o4tD8H6yFAI-L7B-64" value="View" style="swimlane;fontStyle=1;align=center;verticalAlign=top;childLayout=stackLayout;horizontal=1;startSize=26;horizontalStack=0;resizeParent=1;resizeParentMax=0;resizeLast=0;collapsible=1;marginBottom=0;whiteSpace=wrap;html=1;" parent="WIyWlLk6GJQsqaUBKTNV-1" vertex="1">
          <mxGeometry x="15.5" y="850" width="94.5" height="40" as="geometry" />
        </mxCell>
        <mxCell id="jRXq9o4tD8H6yFAI-L7B-66" value="" style="line;strokeWidth=1;fillColor=none;align=left;verticalAlign=middle;spacingTop=-1;spacingLeft=3;spacingRight=3;rotatable=0;labelPosition=right;points=[];portConstraint=eastwest;strokeColor=inherit;" parent="jRXq9o4tD8H6yFAI-L7B-64" vertex="1">
          <mxGeometry y="26" width="94.5" height="14" as="geometry" />
        </mxCell>
        <mxCell id="jRXq9o4tD8H6yFAI-L7B-68" value="Model" style="swimlane;fontStyle=1;align=center;verticalAlign=top;childLayout=stackLayout;horizontal=1;startSize=26;horizontalStack=0;resizeParent=1;resizeParentMax=0;resizeLast=0;collapsible=1;marginBottom=0;whiteSpace=wrap;html=1;" parent="WIyWlLk6GJQsqaUBKTNV-1" vertex="1">
          <mxGeometry x="15.5" y="741" width="94.5" height="40" as="geometry" />
        </mxCell>
        <mxCell id="jRXq9o4tD8H6yFAI-L7B-70" value="" style="line;strokeWidth=1;fillColor=none;align=left;verticalAlign=middle;spacingTop=-1;spacingLeft=3;spacingRight=3;rotatable=0;labelPosition=right;points=[];portConstraint=eastwest;strokeColor=inherit;" parent="jRXq9o4tD8H6yFAI-L7B-68" vertex="1">
          <mxGeometry y="26" width="94.5" height="14" as="geometry" />
        </mxCell>
        <mxCell id="jRXq9o4tD8H6yFAI-L7B-72" value="Controller" style="swimlane;fontStyle=1;align=center;verticalAlign=top;childLayout=stackLayout;horizontal=1;startSize=26;horizontalStack=0;resizeParent=1;resizeParentMax=0;resizeLast=0;collapsible=1;marginBottom=0;whiteSpace=wrap;html=1;" parent="WIyWlLk6GJQsqaUBKTNV-1" vertex="1">
          <mxGeometry x="160" y="850" width="100" height="40" as="geometry" />
        </mxCell>
        <mxCell id="jRXq9o4tD8H6yFAI-L7B-74" value="" style="line;strokeWidth=1;fillColor=none;align=left;verticalAlign=middle;spacingTop=-1;spacingLeft=3;spacingRight=3;rotatable=0;labelPosition=right;points=[];portConstraint=eastwest;strokeColor=inherit;" parent="jRXq9o4tD8H6yFAI-L7B-72" vertex="1">
          <mxGeometry y="26" width="100" height="14" as="geometry" />
        </mxCell>
        <mxCell id="jRXq9o4tD8H6yFAI-L7B-76" value="" style="endArrow=open;endFill=1;endSize=12;html=1;rounded=0;" parent="WIyWlLk6GJQsqaUBKTNV-1" source="jRXq9o4tD8H6yFAI-L7B-72" target="jRXq9o4tD8H6yFAI-L7B-64" edge="1">
          <mxGeometry width="160" relative="1" as="geometry">
            <mxPoint x="-48.5" y="889" as="sourcePoint" />
            <mxPoint x="11.5" y="889" as="targetPoint" />
          </mxGeometry>
        </mxCell>
        <mxCell id="jRXq9o4tD8H6yFAI-L7B-86" style="edgeStyle=orthogonalEdgeStyle;rounded=0;orthogonalLoop=1;jettySize=auto;html=1;entryX=0.5;entryY=0;entryDx=0;entryDy=0;strokeColor=default;curved=0;endArrow=none;endFill=0;startFill=0;" parent="WIyWlLk6GJQsqaUBKTNV-1" source="jRXq9o4tD8H6yFAI-L7B-104" target="jRXq9o4tD8H6yFAI-L7B-72" edge="1">
          <mxGeometry relative="1" as="geometry">
            <mxPoint x="210" y="789.5" as="sourcePoint" />
          </mxGeometry>
        </mxCell>
        <mxCell id="jRXq9o4tD8H6yFAI-L7B-82" value="" style="endArrow=open;endFill=1;endSize=12;html=1;rounded=0;" parent="WIyWlLk6GJQsqaUBKTNV-1" source="jRXq9o4tD8H6yFAI-L7B-68" target="jRXq9o4tD8H6yFAI-L7B-104" edge="1">
          <mxGeometry width="160" relative="1" as="geometry">
            <mxPoint x="15.5" y="758" as="sourcePoint" />
            <mxPoint x="181.50000000000182" y="761" as="targetPoint" />
          </mxGeometry>
        </mxCell>
        <mxCell id="jRXq9o4tD8H6yFAI-L7B-84" value="" style="endArrow=block;endFill=0;endSize=12;html=1;rounded=0;" parent="WIyWlLk6GJQsqaUBKTNV-1" source="jRXq9o4tD8H6yFAI-L7B-64" target="jRXq9o4tD8H6yFAI-L7B-68" edge="1">
          <mxGeometry width="160" relative="1" as="geometry">
            <mxPoint x="91.5" y="860" as="sourcePoint" />
            <mxPoint x="251.5" y="860" as="targetPoint" />
          </mxGeometry>
        </mxCell>
        <mxCell id="jRXq9o4tD8H6yFAI-L7B-87" value="MVC" style="shape=note2;boundedLbl=1;whiteSpace=wrap;html=1;size=25;verticalAlign=top;align=center;" parent="WIyWlLk6GJQsqaUBKTNV-1" vertex="1">
          <mxGeometry x="20" y="570" width="120" height="60" as="geometry" />
        </mxCell>
        <mxCell id="jRXq9o4tD8H6yFAI-L7B-88" value="View" style="swimlane;fontStyle=1;align=center;verticalAlign=top;childLayout=stackLayout;horizontal=1;startSize=26;horizontalStack=0;resizeParent=1;resizeParentMax=0;resizeLast=0;collapsible=1;marginBottom=0;whiteSpace=wrap;html=1;" parent="WIyWlLk6GJQsqaUBKTNV-1" vertex="1">
          <mxGeometry x="300" y="850" width="94.5" height="40" as="geometry" />
        </mxCell>
        <mxCell id="jRXq9o4tD8H6yFAI-L7B-89" value="" style="line;strokeWidth=1;fillColor=none;align=left;verticalAlign=middle;spacingTop=-1;spacingLeft=3;spacingRight=3;rotatable=0;labelPosition=right;points=[];portConstraint=eastwest;strokeColor=inherit;" parent="jRXq9o4tD8H6yFAI-L7B-88" vertex="1">
          <mxGeometry y="26" width="94.5" height="14" as="geometry" />
        </mxCell>
        <mxCell id="jRXq9o4tD8H6yFAI-L7B-90" value="Model" style="swimlane;fontStyle=1;align=center;verticalAlign=top;childLayout=stackLayout;horizontal=1;startSize=26;horizontalStack=0;resizeParent=1;resizeParentMax=0;resizeLast=0;collapsible=1;marginBottom=0;whiteSpace=wrap;html=1;" parent="WIyWlLk6GJQsqaUBKTNV-1" vertex="1">
          <mxGeometry x="300" y="741" width="94.5" height="40" as="geometry" />
        </mxCell>
        <mxCell id="jRXq9o4tD8H6yFAI-L7B-91" value="" style="line;strokeWidth=1;fillColor=none;align=left;verticalAlign=middle;spacingTop=-1;spacingLeft=3;spacingRight=3;rotatable=0;labelPosition=right;points=[];portConstraint=eastwest;strokeColor=inherit;" parent="jRXq9o4tD8H6yFAI-L7B-90" vertex="1">
          <mxGeometry y="26" width="94.5" height="14" as="geometry" />
        </mxCell>
        <mxCell id="jRXq9o4tD8H6yFAI-L7B-92" value="Controller" style="swimlane;fontStyle=1;align=center;verticalAlign=top;childLayout=stackLayout;horizontal=1;startSize=26;horizontalStack=0;resizeParent=1;resizeParentMax=0;resizeLast=0;collapsible=1;marginBottom=0;whiteSpace=wrap;html=1;" parent="WIyWlLk6GJQsqaUBKTNV-1" vertex="1">
          <mxGeometry x="444.5" y="850" width="100" height="40" as="geometry" />
        </mxCell>
        <mxCell id="jRXq9o4tD8H6yFAI-L7B-93" value="" style="line;strokeWidth=1;fillColor=none;align=left;verticalAlign=middle;spacingTop=-1;spacingLeft=3;spacingRight=3;rotatable=0;labelPosition=right;points=[];portConstraint=eastwest;strokeColor=inherit;" parent="jRXq9o4tD8H6yFAI-L7B-92" vertex="1">
          <mxGeometry y="26" width="100" height="14" as="geometry" />
        </mxCell>
        <mxCell id="jRXq9o4tD8H6yFAI-L7B-94" value="" style="endArrow=open;endFill=1;endSize=12;html=1;rounded=0;" parent="WIyWlLk6GJQsqaUBKTNV-1" source="jRXq9o4tD8H6yFAI-L7B-92" target="jRXq9o4tD8H6yFAI-L7B-88" edge="1">
          <mxGeometry width="160" relative="1" as="geometry">
            <mxPoint x="236" y="889" as="sourcePoint" />
            <mxPoint x="296" y="889" as="targetPoint" />
          </mxGeometry>
        </mxCell>
        <mxCell id="jRXq9o4tD8H6yFAI-L7B-97" value="" style="endArrow=open;endFill=1;endSize=12;html=1;rounded=0;" parent="WIyWlLk6GJQsqaUBKTNV-1" source="jRXq9o4tD8H6yFAI-L7B-90" target="jRXq9o4tD8H6yFAI-L7B-99" edge="1">
          <mxGeometry width="160" relative="1" as="geometry">
            <mxPoint x="300" y="758" as="sourcePoint" />
            <mxPoint x="466" y="761" as="targetPoint" />
          </mxGeometry>
        </mxCell>
        <mxCell id="jRXq9o4tD8H6yFAI-L7B-98" value="" style="endArrow=block;endFill=0;endSize=12;html=1;rounded=0;" parent="WIyWlLk6GJQsqaUBKTNV-1" source="jRXq9o4tD8H6yFAI-L7B-88" target="jRXq9o4tD8H6yFAI-L7B-90" edge="1">
          <mxGeometry width="160" relative="1" as="geometry">
            <mxPoint x="376" y="860" as="sourcePoint" />
            <mxPoint x="536" y="860" as="targetPoint" />
          </mxGeometry>
        </mxCell>
        <mxCell id="jRXq9o4tD8H6yFAI-L7B-99" value="Observer" style="swimlane;fontStyle=1;align=center;verticalAlign=top;childLayout=stackLayout;horizontal=1;startSize=26;horizontalStack=0;resizeParent=1;resizeParentMax=0;resizeLast=0;collapsible=1;marginBottom=0;whiteSpace=wrap;html=1;" parent="WIyWlLk6GJQsqaUBKTNV-1" vertex="1">
          <mxGeometry x="444.5" y="726" width="100" height="70" as="geometry" />
        </mxCell>
        <mxCell id="jRXq9o4tD8H6yFAI-L7B-100" value="" style="line;strokeWidth=1;fillColor=none;align=left;verticalAlign=middle;spacingTop=-1;spacingLeft=3;spacingRight=3;rotatable=0;labelPosition=right;points=[];portConstraint=eastwest;strokeColor=inherit;" parent="jRXq9o4tD8H6yFAI-L7B-99" vertex="1">
          <mxGeometry y="26" width="100" height="14" as="geometry" />
        </mxCell>
        <mxCell id="jRXq9o4tD8H6yFAI-L7B-102" value="+update()" style="text;html=1;align=center;verticalAlign=middle;resizable=0;points=[];autosize=1;strokeColor=none;fillColor=none;" parent="jRXq9o4tD8H6yFAI-L7B-99" vertex="1">
          <mxGeometry y="40" width="100" height="30" as="geometry" />
        </mxCell>
        <mxCell id="jRXq9o4tD8H6yFAI-L7B-103" value="" style="endArrow=block;endFill=0;endSize=12;html=1;rounded=0;" parent="WIyWlLk6GJQsqaUBKTNV-1" source="jRXq9o4tD8H6yFAI-L7B-92" target="jRXq9o4tD8H6yFAI-L7B-99" edge="1">
          <mxGeometry width="160" relative="1" as="geometry">
            <mxPoint x="580" y="858.5" as="sourcePoint" />
            <mxPoint x="580" y="789.5" as="targetPoint" />
          </mxGeometry>
        </mxCell>
        <mxCell id="jRXq9o4tD8H6yFAI-L7B-104" value="Observer" style="ellipse;" parent="WIyWlLk6GJQsqaUBKTNV-1" vertex="1">
          <mxGeometry x="180" y="731" width="60" height="60" as="geometry" />
        </mxCell>
        <mxCell id="jRXq9o4tD8H6yFAI-L7B-110" value="ServerProxy" style="swimlane;fontStyle=0;align=center;verticalAlign=top;childLayout=stackLayout;horizontal=1;startSize=26;horizontalStack=0;resizeParent=1;resizeLast=0;collapsible=1;marginBottom=0;rounded=0;shadow=0;strokeWidth=1;" parent="WIyWlLk6GJQsqaUBKTNV-1" vertex="1">
          <mxGeometry x="34" y="462" width="160" height="40" as="geometry">
            <mxRectangle x="120" y="360" width="160" height="26" as="alternateBounds" />
          </mxGeometry>
        </mxCell>
        <mxCell id="jRXq9o4tD8H6yFAI-L7B-112" value="" style="line;html=1;strokeWidth=1;align=left;verticalAlign=middle;spacingTop=-1;spacingLeft=3;spacingRight=3;rotatable=0;labelPosition=right;points=[];portConstraint=eastwest;" parent="jRXq9o4tD8H6yFAI-L7B-110" vertex="1">
          <mxGeometry y="26" width="160" height="14" as="geometry" />
        </mxCell>
        <mxCell id="jRXq9o4tD8H6yFAI-L7B-113" value="" style="endArrow=block;endSize=10;endFill=0;shadow=0;strokeWidth=1;rounded=0;curved=0;edgeStyle=elbowEdgeStyle;elbow=vertical;" parent="WIyWlLk6GJQsqaUBKTNV-1" source="jRXq9o4tD8H6yFAI-L7B-110" target="jRXq9o4tD8H6yFAI-L7B-122" edge="1">
          <mxGeometry width="160" relative="1" as="geometry">
            <mxPoint x="194" y="373" as="sourcePoint" />
            <mxPoint x="219.5" y="391" as="targetPoint" />
          </mxGeometry>
        </mxCell>
        <mxCell id="jRXq9o4tD8H6yFAI-L7B-114" value="ServerLocal" style="swimlane;fontStyle=0;align=center;verticalAlign=top;childLayout=stackLayout;horizontal=1;startSize=26;horizontalStack=0;resizeParent=1;resizeLast=0;collapsible=1;marginBottom=0;rounded=0;shadow=0;strokeWidth=1;" parent="WIyWlLk6GJQsqaUBKTNV-1" vertex="1">
          <mxGeometry x="254" y="462" width="160" height="40" as="geometry">
            <mxRectangle x="340" y="380" width="170" height="26" as="alternateBounds" />
          </mxGeometry>
        </mxCell>
        <mxCell id="jRXq9o4tD8H6yFAI-L7B-116" value="" style="line;html=1;strokeWidth=1;align=left;verticalAlign=middle;spacingTop=-1;spacingLeft=3;spacingRight=3;rotatable=0;labelPosition=right;points=[];portConstraint=eastwest;" parent="jRXq9o4tD8H6yFAI-L7B-114" vertex="1">
          <mxGeometry y="26" width="160" height="14" as="geometry" />
        </mxCell>
        <mxCell id="jRXq9o4tD8H6yFAI-L7B-117" value="" style="endArrow=block;endSize=10;endFill=0;shadow=0;strokeWidth=1;rounded=0;curved=0;edgeStyle=elbowEdgeStyle;elbow=vertical;" parent="WIyWlLk6GJQsqaUBKTNV-1" source="jRXq9o4tD8H6yFAI-L7B-114" target="jRXq9o4tD8H6yFAI-L7B-122" edge="1">
          <mxGeometry width="160" relative="1" as="geometry">
            <mxPoint x="204" y="543" as="sourcePoint" />
            <mxPoint x="219.5" y="391" as="targetPoint" />
          </mxGeometry>
        </mxCell>
        <mxCell id="jRXq9o4tD8H6yFAI-L7B-122" value="«interface»&#xa;Server" style="swimlane;fontStyle=0;align=center;verticalAlign=top;childLayout=stackLayout;horizontal=1;startSize=40;horizontalStack=0;resizeParent=1;resizeLast=0;collapsible=1;marginBottom=0;rounded=0;shadow=0;strokeWidth=1;" parent="WIyWlLk6GJQsqaUBKTNV-1" vertex="1">
          <mxGeometry x="150" y="320" width="160" height="90" as="geometry">
            <mxRectangle x="530" y="280" width="170" height="26" as="alternateBounds" />
          </mxGeometry>
        </mxCell>
        <mxCell id="jRXq9o4tD8H6yFAI-L7B-124" value="" style="line;html=1;strokeWidth=1;align=left;verticalAlign=middle;spacingTop=-1;spacingLeft=3;spacingRight=3;rotatable=0;labelPosition=right;points=[];portConstraint=eastwest;" parent="jRXq9o4tD8H6yFAI-L7B-122" vertex="1">
          <mxGeometry y="40" width="160" height="20" as="geometry" />
        </mxCell>
        <mxCell id="jRXq9o4tD8H6yFAI-L7B-130" value="+accept()" style="text;html=1;align=center;verticalAlign=middle;resizable=0;points=[];autosize=1;strokeColor=none;fillColor=none;" parent="jRXq9o4tD8H6yFAI-L7B-122" vertex="1">
          <mxGeometry y="60" width="160" height="30" as="geometry" />
        </mxCell>
        <mxCell id="jRXq9o4tD8H6yFAI-L7B-132" value="" style="endArrow=block;endFill=0;endSize=12;html=1;rounded=0;" parent="WIyWlLk6GJQsqaUBKTNV-1" source="jRXq9o4tD8H6yFAI-L7B-110" target="jRXq9o4tD8H6yFAI-L7B-114" edge="1">
          <mxGeometry width="160" relative="1" as="geometry">
            <mxPoint x="-30" y="390" as="sourcePoint" />
            <mxPoint x="130" y="390" as="targetPoint" />
          </mxGeometry>
        </mxCell>
        <mxCell id="jRXq9o4tD8H6yFAI-L7B-133" value="Encoder" style="ellipse;" parent="WIyWlLk6GJQsqaUBKTNV-1" vertex="1">
          <mxGeometry x="30" y="1080" width="60" height="60" as="geometry" />
        </mxCell>
        <mxCell id="jRXq9o4tD8H6yFAI-L7B-134" value="MOVEncoder" style="swimlane;fontStyle=1;align=center;verticalAlign=top;childLayout=stackLayout;horizontal=1;startSize=26;horizontalStack=0;resizeParent=1;resizeParentMax=0;resizeLast=0;collapsible=1;marginBottom=0;whiteSpace=wrap;html=1;" parent="WIyWlLk6GJQsqaUBKTNV-1" vertex="1">
          <mxGeometry x="224.5" y="1140" width="94.5" height="40" as="geometry" />
        </mxCell>
        <mxCell id="jRXq9o4tD8H6yFAI-L7B-135" value="" style="line;strokeWidth=1;fillColor=none;align=left;verticalAlign=middle;spacingTop=-1;spacingLeft=3;spacingRight=3;rotatable=0;labelPosition=right;points=[];portConstraint=eastwest;strokeColor=inherit;" parent="jRXq9o4tD8H6yFAI-L7B-134" vertex="1">
          <mxGeometry y="26" width="94.5" height="14" as="geometry" />
        </mxCell>
        <mxCell id="jRXq9o4tD8H6yFAI-L7B-136" value="MKVEncoder" style="swimlane;fontStyle=1;align=center;verticalAlign=top;childLayout=stackLayout;horizontal=1;startSize=26;horizontalStack=0;resizeParent=1;resizeParentMax=0;resizeLast=0;collapsible=1;marginBottom=0;whiteSpace=wrap;html=1;" parent="WIyWlLk6GJQsqaUBKTNV-1" vertex="1">
          <mxGeometry x="224.5" y="1090" width="94.5" height="40" as="geometry" />
        </mxCell>
        <mxCell id="jRXq9o4tD8H6yFAI-L7B-137" value="" style="line;strokeWidth=1;fillColor=none;align=left;verticalAlign=middle;spacingTop=-1;spacingLeft=3;spacingRight=3;rotatable=0;labelPosition=right;points=[];portConstraint=eastwest;strokeColor=inherit;" parent="jRXq9o4tD8H6yFAI-L7B-136" vertex="1">
          <mxGeometry y="26" width="94.5" height="14" as="geometry" />
        </mxCell>
        <mxCell id="jRXq9o4tD8H6yFAI-L7B-138" value="MP4Encoder" style="swimlane;fontStyle=1;align=center;verticalAlign=top;childLayout=stackLayout;horizontal=1;startSize=26;horizontalStack=0;resizeParent=1;resizeParentMax=0;resizeLast=0;collapsible=1;marginBottom=0;whiteSpace=wrap;html=1;" parent="WIyWlLk6GJQsqaUBKTNV-1" vertex="1">
          <mxGeometry x="224.5" y="1040" width="94.5" height="40" as="geometry" />
        </mxCell>
        <mxCell id="jRXq9o4tD8H6yFAI-L7B-139" value="" style="line;strokeWidth=1;fillColor=none;align=left;verticalAlign=middle;spacingTop=-1;spacingLeft=3;spacingRight=3;rotatable=0;labelPosition=right;points=[];portConstraint=eastwest;strokeColor=inherit;" parent="jRXq9o4tD8H6yFAI-L7B-138" vertex="1">
          <mxGeometry y="26" width="94.5" height="14" as="geometry" />
        </mxCell>
        <mxCell id="jRXq9o4tD8H6yFAI-L7B-140" style="edgeStyle=orthogonalEdgeStyle;rounded=0;orthogonalLoop=1;jettySize=auto;html=1;strokeColor=default;curved=0;endArrow=none;endFill=0;startFill=0;" parent="WIyWlLk6GJQsqaUBKTNV-1" source="jRXq9o4tD8H6yFAI-L7B-133" target="jRXq9o4tD8H6yFAI-L7B-138" edge="1">
          <mxGeometry relative="1" as="geometry">
            <mxPoint x="220" y="801" as="sourcePoint" />
            <mxPoint x="220" y="860" as="targetPoint" />
            <Array as="points">
              <mxPoint x="160" y="1110" />
              <mxPoint x="160" y="1060" />
            </Array>
          </mxGeometry>
        </mxCell>
        <mxCell id="jRXq9o4tD8H6yFAI-L7B-141" style="edgeStyle=orthogonalEdgeStyle;rounded=0;orthogonalLoop=1;jettySize=auto;html=1;strokeColor=default;curved=0;endArrow=none;endFill=0;startFill=0;" parent="WIyWlLk6GJQsqaUBKTNV-1" source="jRXq9o4tD8H6yFAI-L7B-133" target="jRXq9o4tD8H6yFAI-L7B-136" edge="1">
          <mxGeometry relative="1" as="geometry">
            <mxPoint x="100" y="1120" as="sourcePoint" />
            <mxPoint x="187" y="1080" as="targetPoint" />
          </mxGeometry>
        </mxCell>
        <mxCell id="jRXq9o4tD8H6yFAI-L7B-142" style="edgeStyle=orthogonalEdgeStyle;rounded=0;orthogonalLoop=1;jettySize=auto;html=1;strokeColor=default;curved=0;endArrow=none;endFill=0;startFill=0;" parent="WIyWlLk6GJQsqaUBKTNV-1" source="jRXq9o4tD8H6yFAI-L7B-133" target="jRXq9o4tD8H6yFAI-L7B-134" edge="1">
          <mxGeometry relative="1" as="geometry">
            <mxPoint x="110" y="1130" as="sourcePoint" />
            <mxPoint x="197" y="1090" as="targetPoint" />
            <Array as="points">
              <mxPoint x="160" y="1110" />
              <mxPoint x="160" y="1160" />
            </Array>
          </mxGeometry>
        </mxCell>
        <mxCell id="jRXq9o4tD8H6yFAI-L7B-144" value="&quot;SUPPORTA DIVERSI FORMATI VIDEO&quot;" style="shape=note2;boundedLbl=1;whiteSpace=wrap;html=1;size=25;verticalAlign=top;align=center;" parent="WIyWlLk6GJQsqaUBKTNV-1" vertex="1">
          <mxGeometry x="15.5" y="980" width="120" height="80" as="geometry" />
        </mxCell>
        <mxCell id="jRXq9o4tD8H6yFAI-L7B-145" value="" style="endArrow=diamondThin;endFill=0;endSize=24;html=1;rounded=0;" parent="WIyWlLk6GJQsqaUBKTNV-1" edge="1">
          <mxGeometry width="160" relative="1" as="geometry">
            <mxPoint x="180" y="726" as="sourcePoint" />
            <mxPoint x="110" y="726" as="targetPoint" />
          </mxGeometry>
        </mxCell>
        <mxCell id="jRXq9o4tD8H6yFAI-L7B-160" value="View (UI)" style="swimlane;fontStyle=1;align=center;verticalAlign=top;childLayout=stackLayout;horizontal=1;startSize=26;horizontalStack=0;resizeParent=1;resizeParentMax=0;resizeLast=0;collapsible=1;marginBottom=0;whiteSpace=wrap;html=1;" parent="WIyWlLk6GJQsqaUBKTNV-1" vertex="1">
          <mxGeometry x="740" y="850" width="94.5" height="40" as="geometry" />
        </mxCell>
        <mxCell id="jRXq9o4tD8H6yFAI-L7B-161" value="" style="line;strokeWidth=1;fillColor=none;align=left;verticalAlign=middle;spacingTop=-1;spacingLeft=3;spacingRight=3;rotatable=0;labelPosition=right;points=[];portConstraint=eastwest;strokeColor=inherit;" parent="jRXq9o4tD8H6yFAI-L7B-160" vertex="1">
          <mxGeometry y="26" width="94.5" height="14" as="geometry" />
        </mxCell>
        <mxCell id="jRXq9o4tD8H6yFAI-L7B-162" value="Subject" style="swimlane;fontStyle=1;align=center;verticalAlign=top;childLayout=stackLayout;horizontal=1;startSize=26;horizontalStack=0;resizeParent=1;resizeParentMax=0;resizeLast=0;collapsible=1;marginBottom=0;whiteSpace=wrap;html=1;" parent="WIyWlLk6GJQsqaUBKTNV-1" vertex="1">
          <mxGeometry x="650" y="741" width="94.5" height="40" as="geometry" />
        </mxCell>
        <mxCell id="jRXq9o4tD8H6yFAI-L7B-163" value="" style="line;strokeWidth=1;fillColor=none;align=left;verticalAlign=middle;spacingTop=-1;spacingLeft=3;spacingRight=3;rotatable=0;labelPosition=right;points=[];portConstraint=eastwest;strokeColor=inherit;" parent="jRXq9o4tD8H6yFAI-L7B-162" vertex="1">
          <mxGeometry y="26" width="94.5" height="14" as="geometry" />
        </mxCell>
        <mxCell id="jRXq9o4tD8H6yFAI-L7B-164" value="Controller" style="swimlane;fontStyle=1;align=center;verticalAlign=top;childLayout=stackLayout;horizontal=1;startSize=26;horizontalStack=0;resizeParent=1;resizeParentMax=0;resizeLast=0;collapsible=1;marginBottom=0;whiteSpace=wrap;html=1;" parent="WIyWlLk6GJQsqaUBKTNV-1" vertex="1">
          <mxGeometry x="884.5" y="850" width="100" height="40" as="geometry" />
        </mxCell>
        <mxCell id="jRXq9o4tD8H6yFAI-L7B-165" value="" style="line;strokeWidth=1;fillColor=none;align=left;verticalAlign=middle;spacingTop=-1;spacingLeft=3;spacingRight=3;rotatable=0;labelPosition=right;points=[];portConstraint=eastwest;strokeColor=inherit;" parent="jRXq9o4tD8H6yFAI-L7B-164" vertex="1">
          <mxGeometry y="26" width="100" height="14" as="geometry" />
        </mxCell>
        <mxCell id="jRXq9o4tD8H6yFAI-L7B-166" value="" style="endArrow=open;endFill=1;endSize=12;html=1;rounded=0;" parent="WIyWlLk6GJQsqaUBKTNV-1" source="jRXq9o4tD8H6yFAI-L7B-164" target="jRXq9o4tD8H6yFAI-L7B-160" edge="1">
          <mxGeometry width="160" relative="1" as="geometry">
            <mxPoint x="676" y="889" as="sourcePoint" />
            <mxPoint x="736" y="889" as="targetPoint" />
          </mxGeometry>
        </mxCell>
        <mxCell id="jRXq9o4tD8H6yFAI-L7B-167" style="edgeStyle=orthogonalEdgeStyle;rounded=0;orthogonalLoop=1;jettySize=auto;html=1;entryX=0.5;entryY=0;entryDx=0;entryDy=0;strokeColor=default;curved=0;endArrow=none;endFill=0;startFill=0;" parent="WIyWlLk6GJQsqaUBKTNV-1" source="jRXq9o4tD8H6yFAI-L7B-170" target="jRXq9o4tD8H6yFAI-L7B-164" edge="1">
          <mxGeometry relative="1" as="geometry">
            <mxPoint x="844.5" y="789.5" as="sourcePoint" />
          </mxGeometry>
        </mxCell>
        <mxCell id="jRXq9o4tD8H6yFAI-L7B-168" value="" style="endArrow=open;endFill=1;endSize=12;html=1;rounded=0;" parent="WIyWlLk6GJQsqaUBKTNV-1" source="jRXq9o4tD8H6yFAI-L7B-162" target="jRXq9o4tD8H6yFAI-L7B-170" edge="1">
          <mxGeometry width="160" relative="1" as="geometry">
            <mxPoint x="650" y="758" as="sourcePoint" />
            <mxPoint x="816.0000000000018" y="761" as="targetPoint" />
          </mxGeometry>
        </mxCell>
        <mxCell id="jRXq9o4tD8H6yFAI-L7B-170" value="Observer" style="ellipse;" parent="WIyWlLk6GJQsqaUBKTNV-1" vertex="1">
          <mxGeometry x="814.5" y="731" width="60" height="60" as="geometry" />
        </mxCell>
        <mxCell id="jRXq9o4tD8H6yFAI-L7B-171" value="" style="endArrow=diamondThin;endFill=0;endSize=24;html=1;rounded=0;" parent="WIyWlLk6GJQsqaUBKTNV-1" edge="1">
          <mxGeometry width="160" relative="1" as="geometry">
            <mxPoint x="814.5" y="726" as="sourcePoint" />
            <mxPoint x="744.5" y="726" as="targetPoint" />
          </mxGeometry>
        </mxCell>
        <mxCell id="jRXq9o4tD8H6yFAI-L7B-172" value="" style="endArrow=diamondThin;endFill=0;endSize=24;html=1;rounded=0;" parent="WIyWlLk6GJQsqaUBKTNV-1" edge="1">
          <mxGeometry width="160" relative="1" as="geometry">
            <mxPoint x="450" y="710" as="sourcePoint" />
            <mxPoint x="380" y="710" as="targetPoint" />
          </mxGeometry>
        </mxCell>
        <mxCell id="jRXq9o4tD8H6yFAI-L7B-173" value="Model" style="swimlane;fontStyle=1;align=center;verticalAlign=top;childLayout=stackLayout;horizontal=1;startSize=26;horizontalStack=0;resizeParent=1;resizeParentMax=0;resizeLast=0;collapsible=1;marginBottom=0;whiteSpace=wrap;html=1;" parent="WIyWlLk6GJQsqaUBKTNV-1" vertex="1">
          <mxGeometry x="610" y="850" width="94.5" height="40" as="geometry" />
        </mxCell>
        <mxCell id="jRXq9o4tD8H6yFAI-L7B-174" value="" style="line;strokeWidth=1;fillColor=none;align=left;verticalAlign=middle;spacingTop=-1;spacingLeft=3;spacingRight=3;rotatable=0;labelPosition=right;points=[];portConstraint=eastwest;strokeColor=inherit;" parent="jRXq9o4tD8H6yFAI-L7B-173" vertex="1">
          <mxGeometry y="26" width="94.5" height="14" as="geometry" />
        </mxCell>
        <mxCell id="jRXq9o4tD8H6yFAI-L7B-175" value="" style="endArrow=open;endFill=1;endSize=12;html=1;rounded=0;" parent="WIyWlLk6GJQsqaUBKTNV-1" source="jRXq9o4tD8H6yFAI-L7B-160" target="jRXq9o4tD8H6yFAI-L7B-173" edge="1">
          <mxGeometry width="160" relative="1" as="geometry">
            <mxPoint x="735" y="870" as="sourcePoint" />
            <mxPoint x="586" y="889" as="targetPoint" />
          </mxGeometry>
        </mxCell>
        <mxCell id="jRXq9o4tD8H6yFAI-L7B-176" value="" style="endArrow=block;endFill=0;endSize=12;html=1;rounded=0;" parent="WIyWlLk6GJQsqaUBKTNV-1" source="jRXq9o4tD8H6yFAI-L7B-173" target="jRXq9o4tD8H6yFAI-L7B-162" edge="1">
          <mxGeometry width="160" relative="1" as="geometry">
            <mxPoint x="357" y="860" as="sourcePoint" />
            <mxPoint x="357" y="791" as="targetPoint" />
          </mxGeometry>
        </mxCell>
        <mxCell id="jRXq9o4tD8H6yFAI-L7B-177" value="" style="endArrow=block;endFill=0;endSize=12;html=1;rounded=0;" parent="WIyWlLk6GJQsqaUBKTNV-1" source="jRXq9o4tD8H6yFAI-L7B-160" target="jRXq9o4tD8H6yFAI-L7B-162" edge="1">
          <mxGeometry width="160" relative="1" as="geometry">
            <mxPoint x="675" y="860" as="sourcePoint" />
            <mxPoint x="700" y="791" as="targetPoint" />
          </mxGeometry>
        </mxCell>
        <mxCell id="jRXq9o4tD8H6yFAI-L7B-178" value="" style="endArrow=open;endFill=1;endSize=12;html=1;rounded=0;" parent="WIyWlLk6GJQsqaUBKTNV-1" source="jRXq9o4tD8H6yFAI-L7B-164" target="jRXq9o4tD8H6yFAI-L7B-173" edge="1">
          <mxGeometry width="160" relative="1" as="geometry">
            <mxPoint x="895" y="880" as="sourcePoint" />
            <mxPoint x="845" y="880" as="targetPoint" />
            <Array as="points">
              <mxPoint x="935" y="940" />
              <mxPoint x="790" y="940" />
              <mxPoint x="657" y="940" />
            </Array>
          </mxGeometry>
        </mxCell>
        <mxCell id="jRXq9o4tD8H6yFAI-L7B-186" value="Algoritmo Cnncreto" style="swimlane;fontStyle=1;align=center;verticalAlign=top;childLayout=stackLayout;horizontal=1;startSize=26;horizontalStack=0;resizeParent=1;resizeParentMax=0;resizeLast=0;collapsible=1;marginBottom=0;whiteSpace=wrap;html=1;" parent="WIyWlLk6GJQsqaUBKTNV-1" vertex="1">
          <mxGeometry x="604.5" y="1152" width="135.5" height="40" as="geometry" />
        </mxCell>
        <mxCell id="jRXq9o4tD8H6yFAI-L7B-187" value="" style="line;strokeWidth=1;fillColor=none;align=left;verticalAlign=middle;spacingTop=-1;spacingLeft=3;spacingRight=3;rotatable=0;labelPosition=right;points=[];portConstraint=eastwest;strokeColor=inherit;" parent="jRXq9o4tD8H6yFAI-L7B-186" vertex="1">
          <mxGeometry y="26" width="135.5" height="14" as="geometry" />
        </mxCell>
        <mxCell id="jRXq9o4tD8H6yFAI-L7B-189" style="edgeStyle=orthogonalEdgeStyle;rounded=0;orthogonalLoop=1;jettySize=auto;html=1;entryX=0.5;entryY=0;entryDx=0;entryDy=0;strokeColor=default;curved=0;endArrow=none;endFill=0;startFill=0;" parent="WIyWlLk6GJQsqaUBKTNV-1" source="jRXq9o4tD8H6yFAI-L7B-192" target="jRXq9o4tD8H6yFAI-L7B-186" edge="1">
          <mxGeometry relative="1" as="geometry">
            <mxPoint x="654.5" y="1091.5" as="sourcePoint" />
          </mxGeometry>
        </mxCell>
        <mxCell id="jRXq9o4tD8H6yFAI-L7B-192" value="Strategia &#xa;Algoritmo" style="ellipse;" parent="WIyWlLk6GJQsqaUBKTNV-1" vertex="1">
          <mxGeometry x="642.25" y="1040" width="60" height="60" as="geometry" />
        </mxCell>
        <mxCell id="jRXq9o4tD8H6yFAI-L7B-194" value="" style="endArrow=open;endFill=1;endSize=12;html=1;rounded=0;" parent="WIyWlLk6GJQsqaUBKTNV-1" target="jRXq9o4tD8H6yFAI-L7B-192" edge="1">
          <mxGeometry width="160" relative="1" as="geometry">
            <mxPoint x="580" y="1070" as="sourcePoint" />
            <mxPoint x="610" y="1069.41" as="targetPoint" />
          </mxGeometry>
        </mxCell>
        <mxCell id="jRXq9o4tD8H6yFAI-L7B-195" value="ALGORITMO MIGLIORATO OGNI VERSIONE" style="shape=note2;boundedLbl=1;whiteSpace=wrap;html=1;size=25;verticalAlign=top;align=center;" parent="WIyWlLk6GJQsqaUBKTNV-1" vertex="1">
          <mxGeometry x="500" y="970" width="120" height="75" as="geometry" />
        </mxCell>
        <mxCell id="jRXq9o4tD8H6yFAI-L7B-196" value="Algoritmo Cnncreto" style="swimlane;fontStyle=1;align=center;verticalAlign=top;childLayout=stackLayout;horizontal=1;startSize=26;horizontalStack=0;resizeParent=1;resizeParentMax=0;resizeLast=0;collapsible=1;marginBottom=0;whiteSpace=wrap;html=1;" parent="WIyWlLk6GJQsqaUBKTNV-1" vertex="1">
          <mxGeometry x="931.5" y="1152" width="135.5" height="40" as="geometry" />
        </mxCell>
        <mxCell id="jRXq9o4tD8H6yFAI-L7B-197" value="" style="line;strokeWidth=1;fillColor=none;align=left;verticalAlign=middle;spacingTop=-1;spacingLeft=3;spacingRight=3;rotatable=0;labelPosition=right;points=[];portConstraint=eastwest;strokeColor=inherit;" parent="jRXq9o4tD8H6yFAI-L7B-196" vertex="1">
          <mxGeometry y="26" width="135.5" height="14" as="geometry" />
        </mxCell>
        <mxCell id="jRXq9o4tD8H6yFAI-L7B-198" style="edgeStyle=orthogonalEdgeStyle;rounded=0;orthogonalLoop=1;jettySize=auto;html=1;entryX=0.5;entryY=0;entryDx=0;entryDy=0;strokeColor=default;curved=0;endArrow=none;endFill=0;startFill=0;" parent="WIyWlLk6GJQsqaUBKTNV-1" source="jRXq9o4tD8H6yFAI-L7B-199" target="jRXq9o4tD8H6yFAI-L7B-196" edge="1">
          <mxGeometry relative="1" as="geometry">
            <mxPoint x="981.5" y="1091.5" as="sourcePoint" />
          </mxGeometry>
        </mxCell>
        <mxCell id="jRXq9o4tD8H6yFAI-L7B-199" value="Strategia &#xa;Algoritmo" style="ellipse;" parent="WIyWlLk6GJQsqaUBKTNV-1" vertex="1">
          <mxGeometry x="969.25" y="1040" width="60" height="60" as="geometry" />
        </mxCell>
        <mxCell id="jRXq9o4tD8H6yFAI-L7B-200" value="" style="endArrow=open;endFill=1;endSize=12;html=1;rounded=0;" parent="WIyWlLk6GJQsqaUBKTNV-1" source="jRXq9o4tD8H6yFAI-L7B-202" target="jRXq9o4tD8H6yFAI-L7B-199" edge="1">
          <mxGeometry width="160" relative="1" as="geometry">
            <mxPoint x="907" y="1070" as="sourcePoint" />
            <mxPoint x="937" y="1069.41" as="targetPoint" />
          </mxGeometry>
        </mxCell>
        <mxCell id="jRXq9o4tD8H6yFAI-L7B-202" value="Algorithm Controller" style="swimlane;fontStyle=1;align=center;verticalAlign=top;childLayout=stackLayout;horizontal=1;startSize=40;horizontalStack=0;resizeParent=1;resizeParentMax=0;resizeLast=0;collapsible=1;marginBottom=0;whiteSpace=wrap;html=1;" parent="WIyWlLk6GJQsqaUBKTNV-1" vertex="1">
          <mxGeometry x="800" y="1043" width="100" height="54" as="geometry" />
        </mxCell>
        <mxCell id="jRXq9o4tD8H6yFAI-L7B-203" value="" style="line;strokeWidth=1;fillColor=none;align=left;verticalAlign=middle;spacingTop=-1;spacingLeft=3;spacingRight=3;rotatable=0;labelPosition=right;points=[];portConstraint=eastwest;strokeColor=inherit;" parent="jRXq9o4tD8H6yFAI-L7B-202" vertex="1">
          <mxGeometry y="40" width="100" height="14" as="geometry" />
        </mxCell>
        <mxCell id="jRXq9o4tD8H6yFAI-L7B-204" value="" style="endArrow=open;endFill=1;endSize=12;html=1;rounded=0;entryX=0;entryY=0.5;entryDx=0;entryDy=0;" parent="WIyWlLk6GJQsqaUBKTNV-1" target="jRXq9o4tD8H6yFAI-L7B-202" edge="1">
          <mxGeometry width="160" relative="1" as="geometry">
            <mxPoint x="750" y="1070" as="sourcePoint" />
            <mxPoint x="794" y="1069.41" as="targetPoint" />
          </mxGeometry>
        </mxCell>
        <mxCell id="eCRNFLDPg4Dwj8UNU8kH-0" value="QUANDO VIENE ESPLICITATA L&#39;INTERFACCIA GRAFICA (UI)" style="shape=note2;boundedLbl=1;whiteSpace=wrap;html=1;size=25;verticalAlign=top;align=center;" vertex="1" parent="WIyWlLk6GJQsqaUBKTNV-1">
          <mxGeometry x="931.5" y="636" width="120" height="90" as="geometry" />
        </mxCell>
        <mxCell id="eCRNFLDPg4Dwj8UNU8kH-1" value="BOH1" style="swimlane;fontStyle=0;align=center;verticalAlign=top;childLayout=stackLayout;horizontal=1;startSize=26;horizontalStack=0;resizeParent=1;resizeLast=0;collapsible=1;marginBottom=0;rounded=0;shadow=0;strokeWidth=1;" vertex="1" parent="WIyWlLk6GJQsqaUBKTNV-1">
          <mxGeometry x="447" y="142" width="160" height="40" as="geometry">
            <mxRectangle x="120" y="360" width="160" height="26" as="alternateBounds" />
          </mxGeometry>
        </mxCell>
        <mxCell id="eCRNFLDPg4Dwj8UNU8kH-2" value="" style="line;html=1;strokeWidth=1;align=left;verticalAlign=middle;spacingTop=-1;spacingLeft=3;spacingRight=3;rotatable=0;labelPosition=right;points=[];portConstraint=eastwest;" vertex="1" parent="eCRNFLDPg4Dwj8UNU8kH-1">
          <mxGeometry y="26" width="160" height="14" as="geometry" />
        </mxCell>
        <mxCell id="eCRNFLDPg4Dwj8UNU8kH-4" value="BOH2" style="swimlane;fontStyle=0;align=center;verticalAlign=top;childLayout=stackLayout;horizontal=1;startSize=26;horizontalStack=0;resizeParent=1;resizeLast=0;collapsible=1;marginBottom=0;rounded=0;shadow=0;strokeWidth=1;" vertex="1" parent="WIyWlLk6GJQsqaUBKTNV-1">
          <mxGeometry x="667" y="140" width="163" height="42" as="geometry">
            <mxRectangle x="340" y="380" width="170" height="26" as="alternateBounds" />
          </mxGeometry>
        </mxCell>
        <mxCell id="eCRNFLDPg4Dwj8UNU8kH-5" value="" style="line;html=1;strokeWidth=1;align=left;verticalAlign=middle;spacingTop=-1;spacingLeft=3;spacingRight=3;rotatable=0;labelPosition=right;points=[];portConstraint=eastwest;" vertex="1" parent="eCRNFLDPg4Dwj8UNU8kH-4">
          <mxGeometry y="26" width="163" height="14" as="geometry" />
        </mxCell>
        <mxCell id="eCRNFLDPg4Dwj8UNU8kH-7" value="AbstractFactory" style="swimlane;fontStyle=0;align=center;verticalAlign=top;childLayout=stackLayout;horizontal=1;startSize=22;horizontalStack=0;resizeParent=1;resizeLast=0;collapsible=1;marginBottom=0;rounded=0;shadow=0;strokeWidth=1;" vertex="1" parent="WIyWlLk6GJQsqaUBKTNV-1">
          <mxGeometry x="563" width="162.5" height="72" as="geometry">
            <mxRectangle x="530" y="280" width="170" height="26" as="alternateBounds" />
          </mxGeometry>
        </mxCell>
        <mxCell id="eCRNFLDPg4Dwj8UNU8kH-8" value="" style="line;html=1;strokeWidth=1;align=left;verticalAlign=middle;spacingTop=-1;spacingLeft=3;spacingRight=3;rotatable=0;labelPosition=right;points=[];portConstraint=eastwest;" vertex="1" parent="eCRNFLDPg4Dwj8UNU8kH-7">
          <mxGeometry y="22" width="162.5" height="20" as="geometry" />
        </mxCell>
        <mxCell id="eCRNFLDPg4Dwj8UNU8kH-9" value="+accept()" style="text;html=1;align=center;verticalAlign=middle;resizable=0;points=[];autosize=1;strokeColor=none;fillColor=none;" vertex="1" parent="eCRNFLDPg4Dwj8UNU8kH-7">
          <mxGeometry y="42" width="162.5" height="30" as="geometry" />
        </mxCell>
        <mxCell id="eCRNFLDPg4Dwj8UNU8kH-12" value="" style="endArrow=open;endFill=1;endSize=12;html=1;rounded=0;dashed=1;" edge="1" parent="WIyWlLk6GJQsqaUBKTNV-1" source="eCRNFLDPg4Dwj8UNU8kH-7" target="eCRNFLDPg4Dwj8UNU8kH-1">
          <mxGeometry width="160" relative="1" as="geometry">
            <mxPoint x="-104.5" y="713" as="sourcePoint" />
            <mxPoint x="-34.5" y="713" as="targetPoint" />
            <Array as="points">
              <mxPoint x="644.5" y="102" />
              <mxPoint x="525.5" y="102" />
            </Array>
          </mxGeometry>
        </mxCell>
        <mxCell id="eCRNFLDPg4Dwj8UNU8kH-13" value="" style="endArrow=open;endFill=1;endSize=12;html=1;rounded=0;dashed=1;" edge="1" parent="WIyWlLk6GJQsqaUBKTNV-1" source="eCRNFLDPg4Dwj8UNU8kH-7" target="eCRNFLDPg4Dwj8UNU8kH-4">
          <mxGeometry width="160" relative="1" as="geometry">
            <mxPoint x="620.5" y="82" as="sourcePoint" />
            <mxPoint x="555.5" y="152" as="targetPoint" />
            <Array as="points">
              <mxPoint x="644.5" y="102" />
              <mxPoint x="747.5" y="102" />
            </Array>
          </mxGeometry>
        </mxCell>
        <mxCell id="eCRNFLDPg4Dwj8UNU8kH-15" value="AbstractFactory" style="swimlane;fontStyle=2;align=center;verticalAlign=top;childLayout=stackLayout;horizontal=1;startSize=26;horizontalStack=0;resizeParent=1;resizeLast=0;collapsible=1;marginBottom=0;rounded=0;shadow=0;strokeWidth=1;" vertex="1" parent="WIyWlLk6GJQsqaUBKTNV-1">
          <mxGeometry x="971" y="10" width="160" height="70" as="geometry">
            <mxRectangle x="230" y="140" width="160" height="26" as="alternateBounds" />
          </mxGeometry>
        </mxCell>
        <mxCell id="eCRNFLDPg4Dwj8UNU8kH-18" value="" style="line;html=1;strokeWidth=1;align=left;verticalAlign=middle;spacingTop=-1;spacingLeft=3;spacingRight=3;rotatable=0;labelPosition=right;points=[];portConstraint=eastwest;" vertex="1" parent="eCRNFLDPg4Dwj8UNU8kH-15">
          <mxGeometry y="26" width="160" height="14" as="geometry" />
        </mxCell>
        <mxCell id="eCRNFLDPg4Dwj8UNU8kH-27" value="+accept()" style="text;html=1;align=center;verticalAlign=middle;resizable=0;points=[];autosize=1;strokeColor=none;fillColor=none;" vertex="1" parent="eCRNFLDPg4Dwj8UNU8kH-15">
          <mxGeometry y="40" width="160" height="30" as="geometry" />
        </mxCell>
        <mxCell id="eCRNFLDPg4Dwj8UNU8kH-19" value="Factory Model A" style="swimlane;fontStyle=0;align=center;verticalAlign=top;childLayout=stackLayout;horizontal=1;startSize=26;horizontalStack=0;resizeParent=1;resizeLast=0;collapsible=1;marginBottom=0;rounded=0;shadow=0;strokeWidth=1;" vertex="1" parent="WIyWlLk6GJQsqaUBKTNV-1">
          <mxGeometry x="861" y="152" width="160" height="40" as="geometry">
            <mxRectangle x="120" y="360" width="160" height="26" as="alternateBounds" />
          </mxGeometry>
        </mxCell>
        <mxCell id="eCRNFLDPg4Dwj8UNU8kH-21" value="" style="line;html=1;strokeWidth=1;align=left;verticalAlign=middle;spacingTop=-1;spacingLeft=3;spacingRight=3;rotatable=0;labelPosition=right;points=[];portConstraint=eastwest;" vertex="1" parent="eCRNFLDPg4Dwj8UNU8kH-19">
          <mxGeometry y="26" width="160" height="14" as="geometry" />
        </mxCell>
        <mxCell id="eCRNFLDPg4Dwj8UNU8kH-22" value="" style="endArrow=block;endSize=10;endFill=0;shadow=0;strokeWidth=1;rounded=0;curved=0;edgeStyle=elbowEdgeStyle;elbow=vertical;" edge="1" parent="WIyWlLk6GJQsqaUBKTNV-1" source="eCRNFLDPg4Dwj8UNU8kH-19" target="eCRNFLDPg4Dwj8UNU8kH-15">
          <mxGeometry width="160" relative="1" as="geometry">
            <mxPoint x="1021" y="63" as="sourcePoint" />
            <mxPoint x="1021" y="63" as="targetPoint" />
          </mxGeometry>
        </mxCell>
        <mxCell id="eCRNFLDPg4Dwj8UNU8kH-23" value="Factory Model B" style="swimlane;fontStyle=0;align=center;verticalAlign=top;childLayout=stackLayout;horizontal=1;startSize=26;horizontalStack=0;resizeParent=1;resizeLast=0;collapsible=1;marginBottom=0;rounded=0;shadow=0;strokeWidth=1;" vertex="1" parent="WIyWlLk6GJQsqaUBKTNV-1">
          <mxGeometry x="1081" y="152" width="160" height="40" as="geometry">
            <mxRectangle x="340" y="380" width="170" height="26" as="alternateBounds" />
          </mxGeometry>
        </mxCell>
        <mxCell id="eCRNFLDPg4Dwj8UNU8kH-25" value="" style="line;html=1;strokeWidth=1;align=left;verticalAlign=middle;spacingTop=-1;spacingLeft=3;spacingRight=3;rotatable=0;labelPosition=right;points=[];portConstraint=eastwest;" vertex="1" parent="eCRNFLDPg4Dwj8UNU8kH-23">
          <mxGeometry y="26" width="160" height="14" as="geometry" />
        </mxCell>
        <mxCell id="eCRNFLDPg4Dwj8UNU8kH-26" value="" style="endArrow=block;endSize=10;endFill=0;shadow=0;strokeWidth=1;rounded=0;curved=0;edgeStyle=elbowEdgeStyle;elbow=vertical;" edge="1" parent="WIyWlLk6GJQsqaUBKTNV-1" source="eCRNFLDPg4Dwj8UNU8kH-23" target="eCRNFLDPg4Dwj8UNU8kH-15">
          <mxGeometry width="160" relative="1" as="geometry">
            <mxPoint x="1031" y="233" as="sourcePoint" />
            <mxPoint x="1131" y="131" as="targetPoint" />
          </mxGeometry>
        </mxCell>
        <mxCell id="eCRNFLDPg4Dwj8UNU8kH-28" value="BOH1 MODEL A" style="swimlane;fontStyle=0;align=center;verticalAlign=top;childLayout=stackLayout;horizontal=1;startSize=26;horizontalStack=0;resizeParent=1;resizeLast=0;collapsible=1;marginBottom=0;rounded=0;shadow=0;strokeWidth=1;" vertex="1" parent="WIyWlLk6GJQsqaUBKTNV-1">
          <mxGeometry x="790" y="280" width="114.5" height="40" as="geometry">
            <mxRectangle x="120" y="360" width="160" height="26" as="alternateBounds" />
          </mxGeometry>
        </mxCell>
        <mxCell id="eCRNFLDPg4Dwj8UNU8kH-29" value="" style="line;html=1;strokeWidth=1;align=left;verticalAlign=middle;spacingTop=-1;spacingLeft=3;spacingRight=3;rotatable=0;labelPosition=right;points=[];portConstraint=eastwest;" vertex="1" parent="eCRNFLDPg4Dwj8UNU8kH-28">
          <mxGeometry y="26" width="114.5" height="14" as="geometry" />
        </mxCell>
        <mxCell id="eCRNFLDPg4Dwj8UNU8kH-30" value="BOH2 MODEL A" style="swimlane;fontStyle=0;align=center;verticalAlign=top;childLayout=stackLayout;horizontal=1;startSize=26;horizontalStack=0;resizeParent=1;resizeLast=0;collapsible=1;marginBottom=0;rounded=0;shadow=0;strokeWidth=1;" vertex="1" parent="WIyWlLk6GJQsqaUBKTNV-1">
          <mxGeometry x="918" y="278" width="112" height="42" as="geometry">
            <mxRectangle x="340" y="380" width="170" height="26" as="alternateBounds" />
          </mxGeometry>
        </mxCell>
        <mxCell id="eCRNFLDPg4Dwj8UNU8kH-31" value="" style="line;html=1;strokeWidth=1;align=left;verticalAlign=middle;spacingTop=-1;spacingLeft=3;spacingRight=3;rotatable=0;labelPosition=right;points=[];portConstraint=eastwest;" vertex="1" parent="eCRNFLDPg4Dwj8UNU8kH-30">
          <mxGeometry y="26" width="112" height="14" as="geometry" />
        </mxCell>
        <mxCell id="eCRNFLDPg4Dwj8UNU8kH-32" value="" style="endArrow=open;endFill=1;endSize=12;html=1;rounded=0;dashed=1;" edge="1" parent="WIyWlLk6GJQsqaUBKTNV-1" target="eCRNFLDPg4Dwj8UNU8kH-28" source="eCRNFLDPg4Dwj8UNU8kH-19">
          <mxGeometry width="160" relative="1" as="geometry">
            <mxPoint x="1058" y="210" as="sourcePoint" />
            <mxPoint x="379.5" y="851" as="targetPoint" />
            <Array as="points">
              <mxPoint x="941" y="240" />
              <mxPoint x="850" y="240" />
            </Array>
          </mxGeometry>
        </mxCell>
        <mxCell id="eCRNFLDPg4Dwj8UNU8kH-33" value="" style="endArrow=open;endFill=1;endSize=12;html=1;rounded=0;dashed=1;" edge="1" parent="WIyWlLk6GJQsqaUBKTNV-1" target="eCRNFLDPg4Dwj8UNU8kH-30" source="eCRNFLDPg4Dwj8UNU8kH-19">
          <mxGeometry width="160" relative="1" as="geometry">
            <mxPoint x="1058" y="210" as="sourcePoint" />
            <mxPoint x="969.5" y="290" as="targetPoint" />
            <Array as="points">
              <mxPoint x="940" y="240" />
              <mxPoint x="974" y="240" />
            </Array>
          </mxGeometry>
        </mxCell>
        <mxCell id="eCRNFLDPg4Dwj8UNU8kH-34" value="BOH1 MODEL B" style="swimlane;fontStyle=0;align=center;verticalAlign=top;childLayout=stackLayout;horizontal=1;startSize=26;horizontalStack=0;resizeParent=1;resizeLast=0;collapsible=1;marginBottom=0;rounded=0;shadow=0;strokeWidth=1;" vertex="1" parent="WIyWlLk6GJQsqaUBKTNV-1">
          <mxGeometry x="1080" y="278" width="120" height="40" as="geometry">
            <mxRectangle x="120" y="360" width="160" height="26" as="alternateBounds" />
          </mxGeometry>
        </mxCell>
        <mxCell id="eCRNFLDPg4Dwj8UNU8kH-35" value="" style="line;html=1;strokeWidth=1;align=left;verticalAlign=middle;spacingTop=-1;spacingLeft=3;spacingRight=3;rotatable=0;labelPosition=right;points=[];portConstraint=eastwest;" vertex="1" parent="eCRNFLDPg4Dwj8UNU8kH-34">
          <mxGeometry y="26" width="120" height="14" as="geometry" />
        </mxCell>
        <mxCell id="eCRNFLDPg4Dwj8UNU8kH-36" value="BOH2 MODEL B" style="swimlane;fontStyle=0;align=center;verticalAlign=top;childLayout=stackLayout;horizontal=1;startSize=26;horizontalStack=0;resizeParent=1;resizeLast=0;collapsible=1;marginBottom=0;rounded=0;shadow=0;strokeWidth=1;" vertex="1" parent="WIyWlLk6GJQsqaUBKTNV-1">
          <mxGeometry x="1220" y="280" width="160" height="40" as="geometry">
            <mxRectangle x="120" y="360" width="160" height="26" as="alternateBounds" />
          </mxGeometry>
        </mxCell>
        <mxCell id="eCRNFLDPg4Dwj8UNU8kH-37" value="" style="line;html=1;strokeWidth=1;align=left;verticalAlign=middle;spacingTop=-1;spacingLeft=3;spacingRight=3;rotatable=0;labelPosition=right;points=[];portConstraint=eastwest;" vertex="1" parent="eCRNFLDPg4Dwj8UNU8kH-36">
          <mxGeometry y="26" width="160" height="14" as="geometry" />
        </mxCell>
        <mxCell id="eCRNFLDPg4Dwj8UNU8kH-38" value="" style="endArrow=open;endFill=1;endSize=12;html=1;rounded=0;dashed=1;" edge="1" parent="WIyWlLk6GJQsqaUBKTNV-1" source="eCRNFLDPg4Dwj8UNU8kH-23" target="eCRNFLDPg4Dwj8UNU8kH-36">
          <mxGeometry width="160" relative="1" as="geometry">
            <mxPoint x="951" y="202" as="sourcePoint" />
            <mxPoint x="1010" y="288" as="targetPoint" />
            <Array as="points">
              <mxPoint x="1161" y="240" />
              <mxPoint x="1300" y="240" />
            </Array>
          </mxGeometry>
        </mxCell>
        <mxCell id="eCRNFLDPg4Dwj8UNU8kH-39" value="" style="endArrow=open;endFill=1;endSize=12;html=1;rounded=0;dashed=1;" edge="1" parent="WIyWlLk6GJQsqaUBKTNV-1" source="eCRNFLDPg4Dwj8UNU8kH-23" target="eCRNFLDPg4Dwj8UNU8kH-34">
          <mxGeometry width="160" relative="1" as="geometry">
            <mxPoint x="1171" y="202" as="sourcePoint" />
            <mxPoint x="1303" y="290" as="targetPoint" />
            <Array as="points">
              <mxPoint x="1161" y="240" />
              <mxPoint x="1140" y="240" />
            </Array>
          </mxGeometry>
        </mxCell>
      </root>
    </mxGraphModel>
  </diagram>
</mxfile>
